Coordinates
version=1
nRows=21
nColumns=19
inDegrees=yes

Units are S.I. units (second, meters, Newtons, ...)
If the header above contains a line with 'inDegrees', this indicates whether rotational values are in degrees (yes) or radians (no).

endheader
time	pelvis_obliquity	pelvis_rotation	pelvis_tilt	pelvis_to_ground_tx	pelvis_to_ground_ty	pelvis_to_ground_tz	left_hip_abduction	left_hip_rotation	left_hip_flexion	left_knee_flexion	left_ankle_flexion	left_subtalar_angle	right_hip_abduction	right_hip_rotation	right_hip_flexion	right_knee_flexion	right_ankle_flexion	right_subtalar_angle
      2.74000000	     89.16886936	      6.34205230	    -10.11443782	     -1.53125794	     -0.60989650	      0.57514259	      0.61490905	    -17.26226032	     35.43970916	    -21.59443968	    -13.05032029	    -16.74983128	      6.29069599	     13.66159914	      7.38202279	    -20.17439699	    -14.22777524	     -9.67143234
      2.75000000	     90.22785606	      7.43804278	    -10.69589492	     -1.52179448	     -0.60895421	      0.57701291	     -0.05500145	    -17.93535946	     34.12380740	    -19.57869633	    -12.94140989	    -16.22337793	      4.89081062	     11.95305254	      9.66728195	    -23.21093965	    -14.79758074	     -9.57488945
      2.76000000	     91.28239456	      8.44425563	    -11.33821261	     -1.51236138	     -0.60796569	      0.57880125	     -0.70756115	    -18.56576050	     32.78882624	    -17.45908487	    -12.87346687	    -15.13194726	      3.53815008	     10.41685094	     11.88914875	    -26.12047974	    -15.46540300	     -8.86594232
      2.77000000	     92.21268051	      9.47030135	    -11.71199651	     -1.50301612	     -0.60699311	      0.58038881	     -1.36417833	    -19.10040016	     31.21130838	    -15.45718432	    -12.71350471	    -14.56725046	      2.37768913	      8.71663769	     13.79709896	    -28.99547035	    -15.83445107	     -8.87130344
      2.78000000	     93.06192534	     10.40754407	    -12.16797963	     -1.49381302	     -0.60599231	      0.58197457	     -1.93850440	    -19.60631649	     29.68259613	    -13.40135251	    -12.69646766	    -13.45543514	      1.29797489	      7.20155261	     15.74885748	    -31.75384570	    -16.08119655	     -8.50027885
      2.79000000	     93.74980320	     11.34734265	    -12.50620522	     -1.48479035	     -0.60500704	      0.58346237	     -2.43645917	    -20.03261051	     28.11126959	    -11.49136709	    -12.58223110	    -13.03084305	      0.39087974	      5.61385636	     17.60306675	    -34.44439162	    -16.11980864	     -8.71178806
      2.80000000	     94.30933824	     12.24131511	    -12.84129181	     -1.47598633	     -0.60402166	      0.58491294	     -2.83927448	    -20.44630778	     26.59460227	     -9.67707367	    -12.57949729	    -12.57543699	     -0.39103940	      4.12865304	     19.49770122	    -37.05661529	    -15.94013780	     -8.98416500
      2.81000000	     94.73416241	     13.09651826	    -13.15235725	     -1.46739485	     -0.60304811	      0.58633132	     -3.15664038	    -20.79362945	     25.12812585	     -7.97075896	    -12.67183010	    -12.13502452	     -1.04630661	      2.71023242	     21.42287781	    -39.55551343	    -15.45220211	     -9.40430831
      2.82000000	     95.03833740	     13.89720060	    -13.41516947	     -1.45901752	     -0.60209603	      0.58766397	     -3.44945262	    -20.90920154	     23.74425547	     -6.47529844	    -12.94241990	    -11.75724224	     -1.59583855	      1.36588144	     23.37732181	    -41.95114658	    -14.42270467	    -10.06995024
      2.83000000	     95.22698110	     14.71051051	    -13.67553410	     -1.45084686	     -0.60119727	      0.58894934	     -3.59524860	    -21.15235489	     22.44773879	     -5.08357227	    -12.95616827	    -11.54703632	     -2.02099362	      0.03306005	     25.39082002	    -44.18127090	    -13.83791702	    -10.60861401
      2.84000000	     95.32894436	     15.49296166	    -13.90388556	     -1.44288233	     -0.60034803	      0.59013116	     -3.68496462	    -21.30051135	     21.25067874	     -3.87928442	    -13.09458538	    -11.37038901	     -2.36333025	     -1.23657464	     27.44769898	    -46.25804282	    -12.86169916	    -11.37400771
      2.85000000	     95.33693844	     16.28931188	    -14.03598289	     -1.43509305	     -0.59957851	      0.59115883	     -3.73647433	    -21.27021925	     20.14485157	     -2.96178219	    -13.34568564	    -11.29387879	     -2.60201632	     -2.52109508	     29.47608438	    -48.16335392	    -11.59746194	    -12.22468225
      2.86000000	     95.31939031	     17.03992252	    -14.16834166	     -1.42746337	     -0.59887021	      0.59207758	     -3.72015436	    -21.31521635	     19.09917894	     -2.09750850	    -13.50581676	    -11.22733870	     -2.81669581	     -3.71123766	     31.55647271	    -49.87327457	    -10.52414273	    -12.91183583
      2.87000000	     95.28985421	     17.76841811	    -14.32365210	     -1.41997308	     -0.59825189	      0.59286666	     -3.62791280	    -21.47075442	     18.14312621	     -1.29585603	    -13.53949225	    -11.09982392	     -3.00775957	     -4.83705396	     33.69689755	    -51.37243253	     -9.78447750	    -13.44354309
      2.88000000	     95.24860348	     18.50614446	    -14.40276875	     -1.41258769	     -0.59773264	      0.59346854	     -3.52316016	    -21.59064090	     17.22339214	     -0.66443602	    -13.62761104	    -10.97371788	     -3.17522280	     -5.96475678	     35.78522026	    -52.67198634	     -8.86934540	    -14.04056079
      2.89000000	     95.18631478	     19.26149703	    -14.37050217	     -1.40526139	     -0.59733159	      0.59388720	     -3.40489257	    -21.64957283	     16.29771444	     -0.19117006	    -13.79177386	    -10.87101551	     -3.31103909	     -7.08617061	     37.76604412	    -53.75162227	     -7.74307396	    -14.60526886
      2.90000000	     95.18647830	     19.95823765	    -14.41432588	     -1.39799588	     -0.59700929	      0.59415648	     -3.26266266	    -21.88150712	     15.42480135	      0.33868813	    -13.78299046	    -10.71197609	     -3.50954760	     -8.09345522	     39.80686771	    -54.61191047	     -7.20257507	    -14.93255727
      2.91000000	     95.19697894	     20.67186373	    -14.35329043	     -1.39072908	     -0.59680647	      0.59423808	     -3.13927019	    -22.07449016	     14.50477123	      0.76235187	    -13.87339071	    -10.52970781	     -3.71849672	     -9.08858559	     41.70433181	    -55.24580385	     -6.33461091	    -15.35992442
      2.92000000	     95.27412827	     21.32236559	    -14.34242799	     -1.38344176	     -0.59668561	      0.59417353	     -3.03243380	    -22.35313544	     13.59029086	      1.24500293	    -13.83171068	    -10.34652303	     -4.00886465	     -9.94475147	     43.58568273	    -55.63513348	     -5.96789942	    -15.59330061
      2.93000000	     95.38210090	     21.96892665	    -14.28713072	     -1.37607634	     -0.59666367	      0.59395115	     -2.94774805	    -22.65570380	     12.62074942	      1.71446468	    -13.82064208	    -10.13785014	     -4.34781358	    -10.73075146	     45.32494931	    -55.76290586	     -5.54027099	    -15.86538513
      2.94000000	     95.53069981	     22.58980474	    -14.19855631	     -1.36859932	     -0.59672701	      0.59357838	     -2.90489896	    -22.95438832	     11.58566325	      2.19031196	    -13.82812278	     -9.92141699	     -4.76326268	    -11.40569762	     46.90417212	    -55.61679211	     -5.13786787	    -16.11349027
